<?xml version="1.0" encoding="utf-8"?>
<!-- Generator: Adobe Illustrator 25.2.0, SVG Export Plug-In . SVG Version: 6.00 Build 0)  -->
<svg version="1.1" id="Capa_1" xmlns="http://www.w3.org/2000/svg" xmlns:xlink="http://www.w3.org/1999/xlink" x="0px" y="0px"
	 viewBox="0 0 395 229" style="enable-background:new 0 0 395 229;" xml:space="preserve">
<style type="text/css">
	.st0{display:none;}
	.st1{display:inline;fill:#E182A8;}
	.st2{fill:none;}
	.st3{fill:#1D1D1B;}
	.st4{font-family:'ArialMT';}
	.st5{font-size:36px;}
	.st6{letter-spacing:6;}
	.st7{fill:#F7931A;}
</style>
<g class="st0">
	<path class="st1" d="M119.6,70.6c1.8-2.9,2.6-6.2,2.6-9.8c0-3.6-0.6-6.5-1.7-8.6c-2-3.3-5.8-5-11.5-5c-10.6,0-20.9,4.3-31,12.8
		c-7.4,6.5-13.4,14.3-18.1,23.4c-4.7,9.1-7.1,17.2-7.1,24.3c0,7.1,1.6,12.5,4.9,16c3.3,3.6,7.4,5.7,12.5,6.5
		c2.7,0.4,5.3,0.6,7.9,0.6c7.9,0,15.4-1.4,22.4-4.2c11.3-4.4,20.4-10.8,27.2-19.3c1-1.2,1.6-1.2,1.6,0c0,0.7-0.4,1.7-1.2,2.8
		c-6.5,8.7-15.3,15.4-26.3,19.9c-7.8,3.2-16,4.8-24.8,4.8c-14.1,0-23.9-3.7-29.3-11.2c-2.8-3.8-4.2-8.6-4.2-14.3
		c0-9.8,2.7-19.3,8.1-28.6c5.4-9.3,12.3-17.1,20.9-23.6c10.9-8.2,22.7-12.3,35.3-12.3c5.7,0,10.7,1,14.9,3c4.2,2,6.3,4.7,6.3,8
		c0,1.5-1,3.8-2.9,6.9c-1.9,3.2-3.1,5.5-3.7,6.9c-0.2,0.7-1,1.1-2.3,1.2C119.8,71,119.6,70.8,119.6,70.6z"/>
	<path class="st1" d="M173.8,107.3c0.2,0.2,0.3,0.6,0.3,1.2s-0.7,1.9-2.2,3.9c-9.2,12.2-17.8,18.4-25.7,18.4c-2.5,0-3.7-1-3.7-3
		c0-3.6,2-8.6,6.1-14.9c-3.6,3.8-7.8,7.8-12.5,11.8c-4.7,4-9,6-13.1,6c-1.9,0-2.8-1.1-2.8-3.4c0-0.5,0.1-0.9,0.2-1.1
		c0.7-5.9,3.1-12.1,7.2-18.7c8.1-13.1,16.5-19.6,25.2-19.6h17.9c0.5,0,0.8,0.2,0.8,0.6c0,0.8-0.5,1.2-1.4,1.2
		c-1.5,0-3.3,1.7-5.4,5.1c-2.2,3.4-5.1,8.6-8.6,15.6c-3.6,7-5.4,11.4-5.4,13.2s0.7,2.7,2.2,2.7c2.4,0,5.7-2.1,10-6.2
		c2.3-2.4,4-4.3,5.1-5.6c1.1-1.3,1.9-2.2,2.3-2.6C170.5,111.4,171.7,109.9,173.8,107.3z M157.1,92.9c0-2-1.3-3-4-3
		c-2.6,0-5.6,1.5-8.8,4.5c-3.2,3-6.7,7.9-10.5,14.6c-3.8,6.7-5.7,11.5-5.7,14.6c0,1.2,0.4,1.9,1.2,1.9c3,0,8.4-4.6,16.1-13.8
		C153.3,102.4,157.1,96.2,157.1,92.9z"/>
	<path class="st1" d="M211.3,99.5c0-4.8-1.5-7.2-4.4-7.2s-7.2,3.1-12.6,9.4c-5.4,6.3-9.6,13-12.4,20.2l-3.3,8.7
		c-0.6,0-1.9,0.3-3.7,0.9c-1.9,0.6-2.9,0.9-3,0.9c-0.5,0-0.5-0.5-0.1-1.4c0.5-0.9,1.3-3,2.6-6.1c1.3-3.1,2.9-7.1,4.7-11.8
		c3.6-9.1,6.1-15.1,7.3-18.1c-5.5,5.9-10.5,11.8-14.9,17.7c-0.7,1-1.1,0.9-1.1-0.3c0-0.8,0.3-1.6,0.8-2.2c7.4-9.1,13-16.6,17-22.3
		c5.2-0.7,8.2-1.5,9-2.2c0.8-0.7,1.3-1.1,1.6-1.1c0.2,0,0.3,0.2,0.4,0.6c0.1,0.4-0.2,1-0.9,1.7c-0.6,0.7-4.1,6.9-10.4,18.5
		c2.8-4.3,6.4-8.5,10.7-12.6c4.3-4.2,8-6.2,11.1-6.2c3.1,0,5.1,1.3,6,3.9c0.4,0.5,0.6,1.1,0.6,1.7S216.2,94,216,95
		c-0.2,1-0.4,1.8-0.6,2.4c-1.1,2.6-2,4.2-2.5,4.7c-0.3,0.5-0.8,0.8-1.6,0.9c-0.1-0.1-0.2-0.2-0.3-0.3
		C211.2,101.5,211.3,100.5,211.3,99.5z"/>
	<path class="st1" d="M251.3,93.2c0,5.6-2.8,12.5-8.4,20.5c-2.2,2.9-4.2,5.2-5.9,6.9c6.8,0,13.2-3.8,19-11.5
		c0.5-0.5,0.8-0.3,0.8,0.5s-0.2,1.6-0.6,2.1c-5.3,7.4-11.3,11.1-18.1,11.1c-0.9,0-1.9-0.1-2.8-0.2c-5.8,5.4-12.4,8.1-19.6,8.1
		c-4.3,0-6.4-1.8-6.4-5.4c0-5.9,2.9-12.8,8.6-20.7c3.6-5.2,8-9.3,13.2-12.3c5.5-3.4,10.2-5.1,14-5.1
		C249.2,87.1,251.3,89.1,251.3,93.2z M243.8,93.3c0-2.5-0.9-3.7-2.8-3.7c-0.6,0-1.8,0.3-3.6,1c-1.8,0.7-4,2.4-6.6,5.1
		c-2.6,2.8-5.2,6.3-7.6,10.5c-4.5,7.4-6.7,12.8-6.7,16.4c0,3.6,0.9,5.4,2.8,5.4c1.5,0,3.1-0.5,4.8-1.5c1.8-1,3.2-2,4.2-3
		c3.2-3.4,6.6-8.1,10.1-13.9C242.1,103.7,243.8,98.3,243.8,93.3z"/>
	<path class="st1" d="M310.3,34.9c2.6,0,3.9,1.7,3.9,5c0,5.5-4.5,14.4-13.5,26.6c-7.7,10.7-18.4,22.2-32.1,34.6
		c-2.7,5-4.7,10.3-6.1,16c-0.3,1.1-0.5,2.2-0.5,3.3c0,4,1.9,6.1,5.8,6.1c0.6,0,1.3-0.1,2-0.2c4.4-0.8,11.3-7.2,20.9-19
		c0.2,0.2,0.3,0.6,0.3,1.3c0,0.7-1.4,2.7-4,6.1c-2.7,3.4-4.7,5.7-6.1,7.1c-5.9,5.9-11.3,8.9-16,8.9c-5.4,0-8.1-2.6-8.1-7.8
		c0-4.2,1.7-9.9,5-17.1l-6.5,7.2c-0.7,1-1.1,0.9-1.1-0.3c0-0.8,0.4-1.7,1.2-2.7c0.8-1,2.4-2.9,4.7-5.7c2.4-2.8,4.1-4.9,5.3-6.2
		c1.5-2.7,4.4-8.6,8.9-17.6c9.4-19.1,16.5-31.8,21.2-38c1.1-0.4,3.4-1.8,6.8-4C305.5,36.1,308.2,34.9,310.3,34.9z M298,65
		c7.4-12,11.1-20.5,11.1-25.4c0-1.2-0.5-1.9-1.4-1.9c-3.4,0-10.2,9-20.2,27.1c-8.5,15.4-13.9,25.4-16.2,30
		C281.5,86.4,290.4,76.4,298,65z"/>
	<path class="st1" d="M303.2,127.6c-3.5,2.1-6.6,3.2-9.5,3.2c-2.9,0-4.3-1-4.3-3c0-1.9,0.5-3.9,1.6-6.2c0.7-1.7,4.9-10.5,12.5-26.5
		c-5.5,5.9-10.5,11.8-14.9,17.7c-0.7,1-1.1,0.9-1.1-0.3c0-0.8,0.3-1.6,0.8-2.2c7.4-9.1,13-16.6,17-22.3c5.2-0.7,8.3-1.6,9.3-2.5
		c1-0.9,1.6-1,1.7-0.2c0,0.4-0.2,0.9-0.7,1.5c-0.5,0.6-4.7,8.4-12.7,23.4c-3.5,6.6-5.3,11.2-5.3,13.7c0,1.5,0.7,2.2,2.2,2.2
		c3.2,0,9-5,17.4-14.9l3.4-3.9c1.2,1.2-1.8,5.8-9.2,13.7C309.4,123.4,306.7,125.5,303.2,127.6z M320.1,70.9c-2.5,0-3.7-1.3-3.7-4
		c0-1.2,0.7-2.3,2.1-3.3c1.4-0.9,2.6-1.4,3.7-1.4c1.1,0,1.9,0.4,2.6,1.3c0.6,0.9,0.9,1.6,0.9,2.1c0,1.9-0.7,3.2-2,4
		C322.3,70.5,321.1,70.9,320.1,70.9z"/>
	<path class="st1" d="M364.8,90.1c0,1.4-0.9,3.3-2.6,5.8s-4.3,7.2-7.7,14.1c-3.4,6.9-5.1,11.3-5.1,13.1c0,1.8,0.8,2.7,2.3,2.7
		c1.5,0,3.5-1,5.9-2.9c2.4-1.9,4.6-4,6.5-6.1c1.9-2.2,4.5-5.2,7.7-9.2c0.2,0.3,0.3,0.8,0.3,1.4s-0.7,1.8-2,3.6
		c-5.3,7.2-9.8,12.1-13.4,14.9c-3.6,2.8-6.9,4.2-9.8,4.2c-3.3,0-5-1.6-5-4.9c0-3.3,1.7-8.2,5.1-14.9c3.4-6.7,6.1-12.3,8.2-16.9
		c1-2.2,0.3-2.6-2.2-1.2c-11.8,7.4-21,19.7-27.6,37.1c-0.6,0-1.8,0.3-3.7,1c-1.8,0.7-2.9,1-3.2,1c-0.4,0-0.4-0.5,0.1-1.5
		c0.5-1,1.3-3,2.6-6.1c1.3-3.1,2.9-7.1,4.7-11.8c3.6-9.1,6.1-15.1,7.3-18.1c-5.5,5.9-10.5,11.8-14.9,17.7c-0.7,1-1.1,0.9-1.1-0.3
		c0-0.8,0.3-1.6,0.8-2.2c7.4-9.1,13-16.6,17-22.3c5.2-0.7,8.2-1.5,9-2.2c0.8-0.7,1.3-1.1,1.6-1.1c0.2,0,0.3,0.2,0.4,0.6
		c0,0.4-0.3,1-0.9,1.8c-0.7,0.8-4.7,8.1-12.2,22c5-6.5,10.8-12.3,17.4-17.3c4.3-3.1,7.7-4.7,10.4-4.7
		C363.4,87.4,364.8,88.3,364.8,90.1z"/>
	<path class="st1" d="M417.7,107.3c0.2,0.2,0.3,0.6,0.3,1.2s-0.7,1.9-2.2,3.9c-9.2,12.2-17.8,18.4-25.7,18.4c-2.5,0-3.7-1-3.7-3
		c0-3.6,2-8.6,6.1-14.9c-3.6,3.8-7.8,7.8-12.5,11.8c-4.7,4-9,6-13.1,6c-1.9,0-2.8-1.1-2.8-3.4c0-0.5,0-0.9,0.2-1.1
		c0.7-5.9,3.1-12.1,7.2-18.7c8.1-13.1,16.5-19.6,25.2-19.6h17.9c0.5,0,0.8,0.2,0.8,0.6c0,0.8-0.5,1.2-1.4,1.2
		c-1.5,0-3.3,1.7-5.4,5.1c-2.2,3.4-5.1,8.6-8.6,15.6c-3.6,7-5.4,11.4-5.4,13.2s0.7,2.7,2.2,2.7c2.4,0,5.7-2.1,10-6.2
		c2.3-2.4,4-4.3,5.1-5.6c1.1-1.3,1.9-2.2,2.3-2.6C414.4,111.4,415.6,109.9,417.7,107.3z M401.1,92.9c0-2-1.3-3-4-3
		c-2.6,0-5.6,1.5-8.8,4.5c-3.2,3-6.7,7.9-10.5,14.6c-3.8,6.7-5.7,11.5-5.7,14.6c0,1.2,0.4,1.9,1.2,1.9c3,0,8.4-4.6,16.1-13.8
		C397.2,102.4,401.1,96.2,401.1,92.9z"/>
</g>
<g class="st0">
	<path class="st1" d="M124.3,13.5c-4.1-4-8.4-7.7-12.7-11.5c-4-3.6-7.9-8.6-5.8-14.3c1.9-5,6.9-9.2,11.5-11.8c5.4-3,12-3.4,16.4,1.5
		c4.4,5,3.4,12.3-1.6,16.4c-2.5,2.1-6.2,3-9.3,1.7c-3.6-1.5-4.9-6.3-1.7-8.9c0.3-0.2-0.1-0.6-0.4-0.5c-3.7,2.1-3.2,7.3,0,9.6
		c3.9,2.8,9.3,1.5,12.8-1.3c8.4-6.8,4.3-20.7-6.3-22.3c-5.7-0.9-11.1,2.1-15.4,5.6c-4.3,3.5-8.8,8.4-8.6,14.4
		c0.2,5.5,4.5,9.9,8.3,13.5c5.2,5,10.4,9.9,15.4,15.1c5.4,5.7,12,12.2,10.3,20.8c-1.7,8.5-8.8,14.2-14.7,19.8
		c-0.4,0.4,0.1,1.1,0.6,0.8c8.4-5.2,17.2-12.5,17.5-23.3C140.9,28.4,131,20.2,124.3,13.5z"/>
	<path class="st1" d="M150.3-14.9c-0.9-2.1-2.4-3.8-4.6-4.8c-0.7-0.3-1.5,0.5-0.9,1.1c1.2,1.2,2.4,2.4,3.6,3.7
		c1.4,3.5-0.2,8.1-2.4,11.4c-3.2,4.7-7.9,8.1-10.4,13.3c-4.1,8.2-3.2,18.8,3.5,25.3c0.2,0.2,0.6-0.1,0.4-0.3
		c-2.8-4.8-4.3-10.5-3.8-16.1c0.5-6.3,3.9-10.9,8.1-15.5c3.2-3.5,7.5-8,7.4-13.1c0-0.7-0.1-1.4-0.2-2.1c7.6,8.6,14,19.1,10.9,30.7
		c-1.8,6.5-6.4,11.6-11.1,16.2c-5.3,5.1-10.9,10-16.2,15.1c-0.6,0.6,0.3,1.5,0.9,0.9c6.1-5.5,12.3-11,18.1-16.9
		c4.6-4.7,8.7-10.1,10-16.7C166,4.6,158.5-6,150.3-14.9z"/>
	<path class="st1" d="M152.1,1.6c-0.1-0.2-0.5,0-0.4,0.2c3.5,8.3-4.2,15.7-7.7,22.7c-3.6,7.1-6,14.8-7,22.7c0,0.2,0.3,0.2,0.3,0
		c2.9-9.1,6.5-17.9,11.4-26.1C152,15.6,157.1,7.7,152.1,1.6z"/>
	<path class="st1" d="M133.5,34.6c-2.7-0.2-5.5,0.5-8.2,0.9c-3.6,0.5-7.3,0.9-10.9,1c-6.3,0-12.9-1.2-18.1-5
		c-4.2-3.1-8.7-8.9-8.1-14.6c5.8,3.7,15,2.6,21.2,2.3c8.7-0.4,19,0.1,23.9,8.5c0,0,0.1,0,0.1,0c-2.5-7.2-10.2-10.3-17.3-10.9
		c-5-0.4-10.1,0.3-15.2,0.2c-2.2,0-4.5-0.2-6.7-0.7c-2.3-0.5-4.3-1.6-6.6-2.2c-0.6-0.2-1.3,0.3-1.3,1c0.4,4.7,1.2,8.6,4.1,12.4
		c2.9,3.8,7,6.6,11.4,8.2c5.6,2,11.8,2.1,17.7,1.6c4-0.4,20.4-4.8,18,3.7c-0.1,0.4,0.5,0.7,0.7,0.3
		C140.4,37.9,136.7,34.9,133.5,34.6z"/>
	<path class="st1" d="M138.7,33.8c-2.3-7.2-10.7-6.3-16.7-5.1c-4.5,1-8.9,1.4-13.4,0.4c-4.3-1-7.6-3.3-11.3-5.6
		c-0.1-0.1-0.2,0.1-0.2,0.2c4,4.9,11.5,7.2,17.6,7.6c4.1,0.3,8-0.8,12.1-1.1c3.8-0.3,8.5,0.7,11,4C138.1,34.6,138.9,34.4,138.7,33.8
		z"/>
	<path class="st1" d="M112.7-11.6c-2.6-1.2-5.7,0.1-6.8,2.7c-1.5,3.6,0.6,7.2,2.7,10c0.1,0.1,0.3,0,0.2-0.2c-1.7-3-4.4-8-1-11
		c2.2-2,5.8-1,6.7,1.9c0.9,3.1-2.3,6.2-5.1,3.7c-0.3-0.2-0.7,0.1-0.5,0.4c1.3,2.5,4.6,1.9,6-0.2C116.6-6.7,115.5-10.4,112.7-11.6z"
		/>
	<path class="st1" d="M125.1-24.4c-2.5-1.4-5.7-0.9-8.3,0c-0.2,0.1-0.1,0.3,0.1,0.2c3.2-0.4,8.3-1.5,9.9,2.4
		c0.7,1.8-0.3,4.2-2.3,4.6c-1.9,0.4-3-0.9-4-2.2c-0.3-0.3-0.7,0-0.7,0.4c0.8,4.4,7.4,3.3,8.1-0.7C128.1-21.7,126.8-23.4,125.1-24.4z
		"/>
	<path class="st1" d="M107.9-24.6c-2.4-2.1-6.5-2.8-9.2-0.9c-2,1.4-3.1,4.5-1.6,6.7c1.3,2,4.4,2.4,5.9,0.5c0.2-0.3-0.1-0.6-0.4-0.4
		c-1.6,1.3-4,0.8-4.9-1c-1-2,0.2-4.4,2-5.4c1.9-1,4.4-0.8,6.2,0.2c2.2,1.1,4.3,3.8,1.9,6c-0.2,0.1,0,0.4,0.2,0.3
		C110.5-20,109.8-23,107.9-24.6z"/>
</g>
<rect x="117.3" y="148.9" class="st2" width="256" height="50.7"/>
<text transform="matrix(1 0 0 1 157.031 177.4724)" class="st3 st4 st5 st6">SPA SALON</text>
<g>
	<g>
		<path class="st7" d="M128.3,60c-1.8-15.2-16.8-24.4-31.1-19.6c-6.8,2.3-13.7,5.8-18.9,10.7c-5.6,5.2-8.4,10.2-7.7,18.1
			c0.8,7.9,2.4,13.4,10.3,16.2c6.5,2.3,16.3,4.9,20.1,11.5c0.8,1.5,1.9,4.4,0.8,6.1c-0.4,0.6-3.5,1.7-4.2,2.1
			c-3.9,1.9-7.9,3.8-11.9,5.6c-9.5,4.2-19.3,8-29.1,11.4c-2.2,0.8-4.2,3-5.8,4.7c-0.3,0.4-3,4.2-2,3.9c8.5-2.9,16.9-6.1,25.2-9.7
			c7.8-3.3,16.3-6.6,23.4-11.3c4.9-3.2,11.5-8.6,13.1-14.5c2-7.2-5.2-11.6-10.7-14.2c-6.6-3.2-16.1-3.8-19-11.5
			c-1.4-3.8-2-8.6-1.8-12.6c0-0.7,0.8-5.7-1.4-2.1c0.8-1.3,4.6-2.6,6-3.3c7.9-3.9,16.2-5.7,24.3-1.1c6.4,3.6,11,10.1,11.9,17.4
			c0.2,1.4,3.5-1.7,3.9-2C124.6,64.8,128.5,61.8,128.3,60L128.3,60z"/>
	</g>
</g>
<g>
	<g>
		<path class="st7" d="M153.6,87.1c-6.9-0.5-14.8-1.6-21.7-0.3c-5.2,1-9.4,4.4-13.1,8c-8.4,8.3-12.3,18.9-14,30.4
			c-0.3,1.9-1.2,5.2,1.2,5.9c1.7,0.6,4.5-1.3,5.8-2.1c5.2-2.9,9.8-6.7,14-10.8c9.8-9.6,16.7-21.4,25.5-31.8c-2.3,1.9-4.7,3.8-7,5.7
			c0.9,4.9-4.9,9.5-7.3,13.4c-2.6,4.1-4.5,8.6-5.6,13.4c-0.5,2.3-2.7,10-0.1,11.5c2.8,1.6,9.8-5.7,11.6-7c1.6-1.2,5.3-4,5.5-6.1
			c0.3-2-1.5-0.4-2.6,0.5c-1.7,1.3-5,5.5-6.9,2.3c-0.7-1.2,0.3-5.2,0.6-6.5c0.7-4.1,2-8.1,4-11.8c3.1-5.7,10.7-11,9.3-18.1
			c-0.1-0.7-6.6,5.3-7,5.7c-5.8,6.8-10.6,14.4-16.1,21.3c-2.4,3-5,5.9-8.1,8.2c-1.4,1-2.9,2.1-4.5,2.7c-3.7,1.3-3.9,0.3-3.7-3.4
			c0.2-4,1.4-8.3,2.6-12.1c0.7-2.5,2.3-8.5,4.7-10.1c1.7-1.1,7.3-1.1,10-1.1c5.1,0,10.2,0.3,15.3,0.7c1.8,0.1,4.7-3.5,5.8-4.7
			C152,90.5,154.9,87.2,153.6,87.1L153.6,87.1z"/>
	</g>
</g>
<g>
	<g>
		<path class="st7" d="M142.6,122.4c26.9-18.1,48.6-44.3,60.1-74.8c0.5-1.2-3.7,1.9-3.9,2c-1.8,1.6-3.8,3.5-4.7,5.8
			c-9.2,24.3-24.9,45.4-46.6,59.9c-2.1,1.4-4.8,3.7-6,6C140.7,122.9,140.6,123.7,142.6,122.4L142.6,122.4z"/>
	</g>
</g>
<g>
	<g>
		<path class="st7" d="M193.7,55.1c-14.5,21.7-23.5,46.5-25.7,72.6c-0.1,1.4,3.7-1.8,3.9-2c1.3-1.2,4.5-3.7,4.7-5.8
			c2.1-24.9,10.3-48.9,24.2-69.7c1.3-1.9,0.6-1.9-1.1-1.1C197.5,50.2,195.1,53.1,193.7,55.1L193.7,55.1z"/>
	</g>
</g>
<g>
	<g>
		<path class="st7" d="M165.2,79.8c9.2-0.3,18.4-0.4,27.6-0.3c1.9,0,4.6-3.4,5.8-4.7c0.4-0.4,3.3-3.9,2-3.9
			c-9.2-0.1-18.4,0-27.6,0.3c-2,0.1-4.5,3.3-5.8,4.7C166.8,76.3,163.9,79.8,165.2,79.8L165.2,79.8z"/>
	</g>
</g>
<g>
	<g>
		<path class="st7" d="M167.5,124.3c1.2,6.6,10.8-0.9,13.2-3c4.6-3.9,8.6-8.5,11.8-13.6c3.3-5.2,5.6-10.9,8.8-16.1
			c2.1-3.5,3.9-5.4,8-6.4c3.7-0.9,6.3,0.1,8,3.4c3,5.9,2.3,13.9,0,19.9c-1.6,4.3-3.8,6.9-8,8.9c-2.8,1.3-6.6,2.9-9.7,2.8
			c-7.3-0.3-6-12-4.5-16.7c2.3-7.6,6.9-14.7,12-20.7c0.8-1,2.5-2.8,0.5-2.6c-2,0.3-4.9,4.1-6.1,5.5c-7.7,9-18.3,23.4-15.9,36.1
			c1.3,6.9,4.7,7.8,10.8,6.1c5.9-1.6,11.2-4.8,15.8-8.7c9.7-8.4,17.3-20,15.2-33.3c-0.9-5.9-3.6-10.9-10.4-9.3
			c-5.5,1.3-10.1,5.1-14,9c-4.8,4.8-8.7,10.3-11.9,16.3c-1.6,3.1-3.1,6.3-4.9,9.3c-1,1.8-2.2,4.1-3.8,5.5c-2.1,1.7-5.8,2.2-6.4-1
			c-0.1-0.7-4.7,3.2-5,3.5C170,120.3,167.2,122.6,167.5,124.3L167.5,124.3z"/>
	</g>
</g>
<g>
	<g>
		<path class="st7" d="M197.1,92.4c7.8,9.3,24.4,5,34.5,2.6c2.2-0.5,4.3-3.1,5.8-4.7c0.3-0.4,3.1-4.2,2-3.9
			c-9.9,2.4-26.2,6.6-33.8-2.5C204.7,83,195.8,90.9,197.1,92.4L197.1,92.4z"/>
	</g>
</g>
<g>
	<g>
		<path class="st7" d="M207.8,122.1c13.2,6.1,26.5-5,35.7-13.5c10.6-9.7,20.5-21.2,23.8-35.6c0.1-0.3-0.1-0.5-0.4-0.4
			c-8.2-0.6-15.9,7.2-19.2,14.2c-1.9,4.1-1.9,8-1.7,12.4c0.3,5.4,0.3,10.9-0.8,16.3c-0.6,2.8-1.4,5.5-2.7,8.1
			c-0.6,1.2-3.8,6.2-1.1,1.7c1.8-3,0.2-1.5-0.9-3.7c-0.1-0.7-0.3-1.3-0.4-2c-4.6,2.7-5.7,3.9-3.1,3.5c1.3,0.2,2.9-0.2,4.2-0.4
			c2.7-0.3,5.5-0.6,8.2-1c10.8-1.7,19.6-5.4,27.4-13.1c-1.3,1.1-2.7,2.2-4,3.3c13.1-5.7,22.1-18.2,29.7-29.8
			c3.8-5.8,7.1-12.1,8.2-19c0.5-3.2,1-15.1-3.4-15.7c-4.1-0.6-10.4,6.5-12.3,9.3c-4.2,6.1-5.6,15-7.5,22c-2.4,8.6-4.4,17.3-6.5,26
			c-1.1,4.6-2,9.4-3.5,13.9c-1.4,4-2,8.3-4,12.1c2.8-2.5,5.5-5,8.3-7.5c-0.3-1.3-0.4-2.6-0.1-3.9c-2.8,2.7-5.7,5.4-8.5,8.1
			c0.5,1.3,0.5,2.6,0.1,3.9c2.9-2.6,5.7-5.2,8.6-7.8c-0.5-5.5,0.1-11,2.2-16.1c0.6-1.3,1.2-2.6,2-3.8c0.7-0.9,0.6-0.9-0.3,0
			c0.6-0.4,1.2-0.8,1.9-1.1c3-1.5,5.2-1.1,7.6,1c6.9,6,3.2,17.8,2,25.4c-0.2,1.4-0.9,3.6,0.3,4.7c1.3,1.1,3.7,0.3,5-0.2
			c4.9-2,8.4-6.7,11.2-11c7.8-11.8,13.7-24.6,18.1-38.1c0.4-1.3-3.8,1.9-3.9,2c-1.7,1.5-3.9,3.5-4.7,5.8
			c-4.5,13.6-10.6,26.5-18.7,38.3c1.7-1.8,3.3-3.5,5-5.3c-1,0.8-3.5,0.4-4.1-0.6c-0.6-1,0.4-4.4,0.6-5.5c0.6-3.7,1.3-7.4,1.5-11.1
			c0.2-5.4-1.3-15-8.6-15.3c-3.4-0.1-7.9,3.4-10.4,5.4c-3.3,2.7-6.4,5.9-8.9,9.3c-5.1,7-7.3,15.4-6.5,24c0.1,1.4,3.6-1.7,3.9-2
			c1.5-1.3,4.3-3.6,4.7-5.8c0.3-1.8,0.3-2.9-0.2-4.6c-0.1-0.4-8.3,6.2-8.5,8.1c-0.2,1.6,0,3,0.2,4.6c0.1,0.7,3.9-2.4,3.9-2.4
			c1.6-1.5,3.4-3.2,4.4-5.1c2.5-4.9,3.9-10.7,5.3-15.9c1.7-6.5,3.1-13.1,4.7-19.6c1.6-6.5,3.2-13,5-19.4c0.9-3.4,1.9-6.7,3-10
			c0.4-1.4,1.4-3,1.5-4.5c1.2-2.5,0.7-2.5-1.4,0.1c-2.5,1.9-2.8,2.3-0.9,1.4c-0.3-0.5,1.5,1,1.3,0.8c0.8,0.8,1.1,2.6,1.4,3.7
			c0.9,3.1,1,6.4,0.6,9.6c-0.8,6.1-3.4,11.8-6.8,16.9c-3,4.5-6,10-10.2,13.5c-2,1.7-4.5,2.4-6.7,3.8c-2.3,1.5-4.3,3.8-6.2,5.8
			c1.3-1.1,2.7-2.2,4-3.3c-7.9,4.6-16.6,6.2-25.6,7.1c-3.5,0.4-7.1,0-10.1,2c-2.9,1.9-5.7,4.8-7.5,7.7c-3.1,4.9,0.2,11,5.8,7.3
			c5.9-3.9,10.8-10.9,13.2-17.4c3-7.9,2.7-16.2,2.3-24.5c0-0.5,1.2-9.8,1.6-9.4c-3.2,2.3-3.5,2.8-0.9,1.7c0.8-0.2,1.7-0.3,2.6-0.3
			c1.6,1.1-0.3,4.5-0.8,5.8c-5.4,14-24,34.4-40.7,26.7C213.8,112.5,207.5,122,207.8,122.1L207.8,122.1z"/>
	</g>
</g>
<g>
	<g>
		<path class="st7" d="M323.7,91.3c-6.2,18.5,3.8,39.9,21.9,47c2.7-2.8,5.4-5.7,8.1-8.5c-82.5-0.1-164.9-0.4-247.4-0.6
			c-23.3-0.1-46.7,0.2-70,1.1c-2,0.1-4.5,3.3-5.8,4.7c-0.4,0.4-3.3,4-2,3.9c41.3-1.7,82.7-1.1,124.1-0.7c41.1,0.4,82.2,0,123.3,0
			c23.3,0,46.7,0.1,70,0.1c2,0,8.6-8.3,8.1-8.5c-18-7-27.9-28-21.8-46.3c0.4-1.3-3.8,1.9-3.9,2C326.7,87.1,324.4,89.1,323.7,91.3
			L323.7,91.3z"/>
	</g>
</g>
<g>
	<g>
		<path class="st7" d="M319.8,76.6c1,1.3,2.1,2.6,3.1,3.9c2.8-2.8,5.7-5.7,8.5-8.5c-1.4-1.2-2.6-2.6-3.5-4.2c-0.5-0.9-4.6,3.1-5,3.5
			c-1,1-2,2-2.8,3.2c-0.3,0.4-1,1.3-0.7,1.8c0.9,1.6,2.1,3,3.5,4.2c0.4,0.3,1.6-0.6,1.8-0.7c1.2-0.8,2.3-1.8,3.2-2.8
			c1-1,2-2,2.8-3.2c0.2-0.4,1.1-1.3,0.7-1.8c-1-1.3-2.1-2.6-3.1-3.9c-0.3-0.4-1.7,0.7-1.8,0.7c-1.2,0.8-2.3,1.8-3.2,2.8
			c-1,1-2,2-2.8,3.2C320.3,75.2,319.4,76.2,319.8,76.6L319.8,76.6z"/>
	</g>
</g>
<g>
	<g>
		<path class="st7" d="M138.8,128.2c21.9-16.8,40.5-38,53.9-62.1c1.2-2.2-2.2,0.2-2.6,0.5c-2.1,1.6-4.2,3.8-5.5,6.1
			c-10.9,19.5-25.2,36.4-42.9,50c-1.6,1.2-5.3,4-5.5,6.1C136,130.6,137.7,129,138.8,128.2L138.8,128.2z"/>
	</g>
</g>
<g>
	<g>
		<path class="st7" d="M137.8,101.2c0.6,1.7-0.9,3.6-1.4,5.1c-0.3,0.8,0.9,0.2,1,0.2c1-0.5,2.1-1.4,2.9-2.2c1.7-1.6,3.9-3.5,4.7-5.8
			c0.7-2,2.1-3.6,1.3-5.9c-0.3-0.8-4.7,3.2-5,3.5c-1,1-2,2-2.8,3.2C138.1,99.9,137.5,100.6,137.8,101.2L137.8,101.2z"/>
	</g>
</g>
<g>
	<g>
		<path class="st7" d="M145.7,117.3c-2,1.2-3.7,2.6-5.5,4.1c1.2-0.5,2.4-0.9,3.7-1.4c1.2-2.6-6.3,6-4,4.3c-1,0.7,0.1-0.1,0.3-0.2
			c0.3-0.2,0.6-0.4,0.9-0.6c0.2-0.1,0.3-0.2,0.5-0.3c-0.3,0.2-0.3,0.2,0.1-0.1c2.3-1.4,4.4-3.4,6.1-5.5c0.4-0.6,1.6-1.7,1.5-2.4
			c-0.1-0.6-0.5-0.4-1-0.2c-1.9,1.1-3.7,2.3-5.4,3.7c-1.5,1.2-2.9,2.5-4.2,4c-1.1,1.2-2.2,2.4-2.8,3.9c-0.4,0.8-0.4,1.1,0.5,0.9
			c1.2-0.3,2.3-1.6,3.2-2.3c-0.6,0.5-0.7,0.6-0.4,0.4c0.3-0.2,0.2-0.2-0.3,0.2c0.1-0.1,1-0.6,0.4-0.3c2.3-1.4,4.4-3.4,6.1-5.5
			c0.4-0.6,1.6-1.7,1.5-2.4C146.6,116.9,146.1,117,145.7,117.3L145.7,117.3z"/>
	</g>
</g>
<g>
	<g>
		<path class="st7" d="M135.6,129.9c0,0,0.1,0,0.1-0.1c0.5-0.3,0.9-0.5,1.3-0.9c0.6-0.4,1.1-0.8,1.6-1.3c0.6-0.5,1.2-1.1,1.7-1.7
			c0.5-0.5,1-1.1,1.5-1.7c0.2-0.3,0.5-0.7,0.7-1c0.3-0.4,0.6-0.9,0.8-1.4c0-0.1,0-0.2-0.1-0.4c-0.3-0.1-0.7,0-1,0.2
			c0,0-0.1,0-0.1,0.1c-0.5,0.3-0.9,0.5-1.3,0.9c-0.6,0.4-1.1,0.8-1.6,1.3c-0.6,0.5-1.2,1.1-1.7,1.7c-0.5,0.5-1,1.1-1.5,1.7
			c-0.2,0.3-0.5,0.7-0.7,1c-0.3,0.4-0.6,0.9-0.8,1.4c0,0.1,0,0.2,0.1,0.4C134.9,130.2,135.3,130.2,135.6,129.9L135.6,129.9z"/>
	</g>
</g>
<g>
	<g>
		<path class="st7" d="M176.7,122.5c3.2-4-2.1,2.1-3,1.8c1.1,0.4,1.5-7,1.7-7.9c1.1-5.6,2.6-11.2,4.4-16.6c0.4-1.3-3.8,1.9-3.9,2
			c-1.7,1.5-3.9,3.5-4.7,5.8c-1.5,4.5-2.7,9.3-3.8,13.9c-0.4,1.9-2.8,9.6-0.8,11c0.3,0.1,0.7,0,1-0.2c5.5-3.1,10.9-7.8,14.8-12.7
			c0.8-1,2.5-2.8,0.5-2.6C180.8,117.2,177.8,121.1,176.7,122.5L176.7,122.5z"/>
	</g>
</g>
<g>
	<g>
		<path class="st7" d="M208.5,81.2c0-0.4,0-0.7,0.1-1.1c-0.1,0.2-0.2,0.4-0.2,0.6c0-0.1,0.1-0.1,0.1-0.2c-0.8,1.3-1.7,2.4-2.8,3.5
			c-0.7,0.7-1.5,1.4-2.2,2c-0.4,0.4-0.9,0.7-1.4,1c1-0.6,2-1.4,2.9-2.2c1.1-1,2.3-2.2,3.2-3.3c0.2-0.3,0.5-0.7,0.7-1
			c0.3-0.4,0.6-0.9,0.8-1.4c0-0.1,0-0.2-0.1-0.4c-0.3-0.1-0.7,0-1,0.2c-1.7,0.9-3.1,2.2-4.4,3.6c-1.1,1.1-2.2,2.3-3.1,3.6
			c-0.6,0.8-1.2,1.9-1.1,2.9c-0.1,0.3,0,0.4,0.2,0.4c0.3,0.1,0.5,0,0.8-0.2c1-0.5,2.1-1.4,2.9-2.2c1.1-1,2.2-2.1,3.2-3.3
			c0.2-0.3,0.5-0.7,0.7-1C208.1,82.2,208.3,81.7,208.5,81.2L208.5,81.2z"/>
	</g>
</g>
<g>
	<g>
		<path class="st7" d="M201.2,88.3c0.7-0.5,1.8-1.4,2.4-1.7c0.3-0.1,0.5-0.1,0.9-0.2c0.8-0.2,1.4-0.5,2-1c0.8-0.5,7.9-7.1,6.7-7.8
			c-1.5-0.9-4.5,1.2-5.7,2c-1,1.8-1.9,3.6-2.9,5.4c-0.6,0.5-1.2,0.9-1.8,1.4c0.1-0.1,0.3-0.2,0.4-0.2c0.4-0.1,0.8-0.2,1.2-0.3
			c0.9-0.1,1.7-0.2,2.6-0.2c0.7,0,2-1.1,2.4-1.5c1.2-1,2.3-2.1,3.3-3.2c0.4-0.4,3.3-3.9,2-3.9c-1.4,0.1-2.8,0.1-4.2,0.6
			c-2,0.7-3.6,2.1-5.2,3.5c-1.6,1.4-3.5,3.2-4.4,5.1c-0.8,1.6,0.8,0.8,1.6,0.3c0.3-0.2,1.6-0.9,2.1-0.6c2.2-2.6,4.5-5.2,6.7-7.8
			c-0.1,0.1-0.2,0.1-0.3,0.2c0.5-0.3,1-0.5,1.4-0.8c-2.5,0.4-4.5,1.9-6.5,3.4c-2.3,1.6-4.4,3.7-6,6c-0.2,0.3-1.1,1.4-0.7,1.8
			C199.8,89.4,201,88.5,201.2,88.3L201.2,88.3z"/>
	</g>
</g>
<g>
	<g>
		<path class="st7" d="M204.5,85.9c0.9-0.4,2.6-0.5,3.8-0.5c0.7,0,2-1.1,2.4-1.5c1.2-1,2.3-2.1,3.3-3.2c0.8-0.9,1.7-1.8,2.2-2.9
			c0.2-0.4,0.5-1-0.2-1c-1.8,0-3.5,0.2-5,1c-1,0.5-2,1.4-2.9,2.2c-1.1,1-2.3,2.2-3.2,3.3c-0.5,0.6-1.5,1.6-1.5,2.4
			C203.4,86.4,204.1,86.1,204.5,85.9L204.5,85.9z"/>
	</g>
</g>
<g>
	<g>
		<path class="st7" d="M91.5,112.8c-2.2,3.6-4.1,7.2-5.8,11c-1,2.2,2.1-0.1,2.6-0.5c1.9-1.6,4.5-3.7,5.5-6.1c1.7-3.8,3.7-7.4,5.8-11
			c1.3-2.2-2.2,0.2-2.6,0.5C94.9,108.4,92.9,110.5,91.5,112.8L91.5,112.8z"/>
	</g>
</g>
<g>
	<g>
		<path class="st7" d="M72,122.4c-0.8,1.6-1.6,3.1-2.3,4.7c-0.2,0.5-0.5,1,0.2,1c0.6,0.1,2.1-1.2,2.4-1.5c1.2-1,2.3-2,3.3-3.2
			c0.8-0.9,1.7-1.8,2.2-2.9c0.7-1.6,1.5-3.2,2.3-4.7c0.2-0.5,0.5-1-0.2-1c-0.6-0.1-2.1,1.2-2.4,1.5c-1.2,1-2.3,2-3.3,3.2
			C73.4,120.4,72.6,121.3,72,122.4L72,122.4z"/>
	</g>
</g>
<g>
	<g>
		<path class="st7" d="M101.5,41.1c-0.9,1.5-1.8,3-2.6,4.5c-0.3,0.5-0.5,1,0.2,1c0.6,0.1,2.1-1.2,2.4-1.5c2-1.7,4.2-3.7,5.5-6.1
			c0.8-1.5,1.7-3,2.6-4.5c0.3-0.5,0.4-1-0.2-1c-0.6-0.1-2.1,1.2-2.4,1.5C104.9,36.8,102.9,38.8,101.5,41.1L101.5,41.1z"/>
	</g>
</g>
<g>
	<g>
		<path class="st7" d="M116.3,43.7c-1.5,2.4-2.9,4.9-4.1,7.4c-1.1,2.2,2.1-0.1,2.6-0.5c2-1.6,4.3-3.7,5.5-6.1c1.3-2.5,2.7-5,4.1-7.4
			c1.3-2.2-2.2,0.2-2.6,0.5C119.7,39.3,117.7,41.3,116.3,43.7L116.3,43.7z"/>
	</g>
</g>
</svg>
